<svg xmlns="http://www.w3.org/2000/svg"
    height="16"
    viewBox="0 0 96 96"
    fill="none">
    <path class="logo-top"
        d="M72.3096 0.0584174C72.9851 -0.0638533 73.684 0.00624546 74.3243 0.264663L74.5012 0.343989C74.9057 0.54079 75.2408 0.821563 75.5541 1.1383C75.9028 1.49097 76.2908 1.95739 76.751 2.50904L84.725 12.0683L85.5227 13.0329C85.7604 13.3274 85.9689 13.5974 86.1444 13.8473C86.502 14.3564 86.7834 14.8667 86.9082 15.4549L86.9664 15.7976C87.0539 16.4855 86.9697 17.184 86.7228 17.8326L86.5851 18.153C86.3259 18.6954 85.9328 19.1279 85.4655 19.5428C85.2362 19.7464 84.9704 19.9622 84.67 20.1954L83.6658 20.9569L53.5619 43.572C52.1851 44.6064 51.2692 45.3124 50.2676 45.6673L50.0664 45.7329C49.2644 45.9762 48.4205 46.0539 47.5888 45.9634L47.2329 45.9148C46.3955 45.7743 45.6048 45.4014 44.5847 44.8412L43.4778 44.2193L3.03035 21.3842C2.24521 20.941 1.83376 20.0286 2.06326 19.1377L2.12893 18.9294C2.48179 17.9905 3.47182 17.4962 4.40314 17.6454L4.60122 17.6877L6.26107 18.1097C23.2735 22.2933 36.1214 20.9307 46.073 17.2963C56.3648 13.5376 63.6523 7.31761 69.3172 2.05741L70.0555 1.37839C70.2827 1.17425 70.4927 0.992814 70.6889 0.838978C71.0913 0.523594 71.5156 0.257643 72.0225 0.122935L72.3096 0.0584174Z"
        fill="url(#paint0_radial_89_89)" />
    <path
        d="M46.4337 50.2672C47.2357 50.0238 48.0795 49.946 48.9112 50.0366L49.2671 50.0852C50.1044 50.2258 50.8952 50.5986 51.9153 51.1588L53.0222 51.7807L93.4697 74.6158C94.2546 75.0591 94.6662 75.9715 94.4368 76.8623L94.3711 77.0706C94.0183 78.0095 93.0282 78.5036 92.0969 78.3546L91.8988 78.3123L90.239 77.8903C73.2265 73.7066 60.3786 75.0693 50.427 78.7037C40.135 82.4624 32.8478 88.6823 27.1828 93.9426L26.4445 94.6216C26.2173 94.8258 26.0074 95.0071 25.8111 95.161C25.4087 95.4765 24.9845 95.7423 24.4775 95.877L24.1904 95.9416C23.5149 96.0639 22.816 95.9937 22.1757 95.7353L21.9989 95.656C21.5944 95.4593 21.2591 95.1783 20.946 94.8617C20.5973 94.5091 20.2091 94.0424 19.749 93.4909L11.775 83.9317L10.9773 82.9671C10.7397 82.6727 10.5311 82.4025 10.3556 82.1527C9.99805 81.6437 9.7166 81.1332 9.59185 80.5451L9.53359 80.2024C9.44611 79.5144 9.53024 78.8161 9.77722 78.1674L9.91492 77.847C10.1742 77.3045 10.5671 76.8722 11.0345 76.4572C11.2639 76.2535 11.5295 76.0379 11.83 75.8046L12.8342 75.0431L42.9381 52.428C44.3151 51.3935 45.2307 50.6876 46.2324 50.3327L46.4337 50.2672Z"
        fill="url(#paint1_linear_89_89)" />
    <defs>
        <radialGradient id="paint0_radial_89_89" cx="0" cy="0" r="1" gradientUnits="userSpaceOnUse"
            gradientTransform="translate(45 6) rotate(84.7085) scale(40.2858 74.5239)">
            <stop stop-color="#000" stop-opacity="0.5" />
            <stop offset="1" stop-color="#000" />
        </radialGradient>
        <linearGradient id="paint1_linear_89_89" x1="46.5" y1="53.5" x2="57.3755" y2="83.7356"
            gradientUnits="userSpaceOnUse">
            <stop class="logo-bottom-color0" stop-color="#4454F1" />
            <stop class="logo-bottom-color1" offset="1" stop-color="#4454F175" />
        </linearGradient>
    </defs>
    <style>
        @media
        (prefers-color-scheme:dark){
            .logo-top {
                filter:invert(100%)
            }
            .logo-bottom-color0 {
                stop-color:#489EFF
            }
            .logo-bottom-color1 {
                stop-color:#489EFF75
            }
        }
</style>
</svg>