<svg width="96" height="96" viewBox="0 0 96 96" fill="none" xmlns="http://www.w3.org/2000/svg">
<path d="M68 0C83.464 0 96 12.536 96 28C96 32.1788 95.0841 36.1433 93.4425 39.7045C91.0969 44.7927 91.0969 51.2073 93.4425 56.2955C95.0841 59.8567 96 63.8212 96 68C96 83.464 83.464 96 68 96C63.8212 96 59.8567 95.0841 56.2955 93.4425C51.2073 91.0969 44.7927 91.0969 39.7045 93.4425C36.1433 95.0841 32.1788 96 28 96C12.536 96 0 83.464 0 68C0 63.8213 0.915697 59.8566 2.55718 56.2954C4.90246 51.2072 4.90246 44.7928 2.55718 39.7046C0.915697 36.1434 0 32.1787 0 28C0 12.536 12.536 0 28 0C32.1787 0 36.1434 0.915697 39.7046 2.55718C44.7928 4.90246 51.2072 4.90246 56.2954 2.55718C59.8566 0.915697 63.8213 0 68 0Z" fill="#4C4C4C"/>
</svg>
