<svg width="28" height="29" viewBox="0 0 28 29" fill="none" xmlns="http://www.w3.org/2000/svg">
<path d="M23.8584 14.5009L15.2834 23.0759C14.9918 23.3675 14.8508 23.7078 14.8605 24.0967C14.8702 24.4856 15.0209 24.8259 15.3126 25.1175C15.6043 25.4092 15.9445 25.555 16.3334 25.555C16.7223 25.555 17.0626 25.4092 17.3543 25.1175L26.3376 16.1634C26.5709 15.93 26.7459 15.6675 26.8626 15.3759C26.9793 15.0842 27.0376 14.7925 27.0376 14.5009C27.0376 14.2092 26.9793 13.9175 26.8626 13.6259C26.7459 13.3342 26.5709 13.0717 26.3376 12.8384L17.3543 3.85503C17.0626 3.56336 16.7175 3.42239 16.3188 3.43211C15.9202 3.44183 15.5751 3.59253 15.2834 3.88419C14.9918 4.17586 14.8459 4.51614 14.8459 4.90503C14.8459 5.29392 14.9918 5.63419 15.2834 5.92586L23.8584 14.5009Z" fill="white" fill-opacity="0.75"/>
</svg>
