<!-- <svg xmlns="http://www.w3.org/2000/svg" fill="none" viewBox="0 0 36 36">
    <path fill="#000"
        d="M22.25 4h-8.5a1 1 0 0 0-.96.73l-5.54 19.4a.5.5 0 0 0 .62.62l5.05-1.44a2 2 0 0 0 1.38-1.4l3.22-11.66a.5.5 0 0 1 .96 0l3.22 11.67a2 2 0 0 0 1.38 1.39l5.05 1.44a.5.5 0 0 0 .62-.62l-5.54-19.4a1 1 0 0 0-.96-.73Z" />
    <path fill="url(#gradient)"
        d="M18 28a7.63 7.63 0 0 1-5-2c-1.4 2.1-.35 4.35.6 5.55.14.17.41.07.47-.15.44-1.8 2.93-1.22 2.93.6 0 2.28.87 3.4 1.72 3.81.34.16.59-.2.49-.56-.31-1.05-.29-2.46 1.29-3.25 3-1.5 3.17-4.83 2.5-6-.67.67-2.6 2-5 2Z" />
    <defs>
        <linearGradient id="gradient" x1="16" x2="16" y1="32" y2="24" gradientUnits="userSpaceOnUse">
            <stop stop-color="#000" />
            <stop offset="1" stop-color="#000" stop-opacity="0" />
        </linearGradient>
    </defs>
    <style>
        @media (prefers-color-scheme:dark){:root{filter:invert(100%)}}
    </style>
</svg> -->
<svg xmlns="http://www.w3.org/2000/svg" 
    height="16"
    viewBox="0 0 14 14"
    fill="none">
    <g>
        <path
            d="M10.5966 0.00868288C10.6975 -0.00949083 10.8019 0.000928294 10.8975 0.0393382L10.9239 0.0511287C10.9844 0.0803804 11.0344 0.122113 11.0812 0.169191C11.1333 0.221611 11.1912 0.290936 11.2599 0.372931L12.4508 1.79377L12.5699 1.93714C12.6054 1.98092 12.6366 2.02105 12.6628 2.05819C12.7162 2.13386 12.7582 2.2097 12.7768 2.29714L12.7855 2.34808C12.7986 2.45033 12.786 2.55414 12.7492 2.65054L12.7286 2.69818C12.6899 2.77879 12.6312 2.84307 12.5614 2.90475C12.5271 2.935 12.4874 2.96707 12.4426 3.00174L12.2926 3.11493L7.79682 6.47633C7.5912 6.63007 7.45442 6.735 7.30485 6.78776L7.27479 6.7975C7.15502 6.83367 7.02899 6.84522 6.90478 6.83177L6.85163 6.82454C6.72657 6.80366 6.60849 6.74824 6.45615 6.66498L6.29084 6.57254L0.250311 3.17844C0.133056 3.11256 0.0716082 2.97695 0.105883 2.84454L0.115691 2.81357C0.168387 2.67402 0.31624 2.60055 0.455327 2.62272L0.484909 2.62901L0.732794 2.69173C3.27348 3.31357 5.19222 3.11104 6.67841 2.57084C8.21541 2.01216 9.30374 1.08765 10.1498 0.305804L10.26 0.204877C10.2939 0.174534 10.3253 0.147567 10.3546 0.124702C10.4147 0.0778244 10.4781 0.0382948 10.5538 0.0182725L10.5966 0.00868288Z"
            fill="#000"></path>
        <path
            d="M6.75136 7.2025C6.87114 7.16633 6.99715 7.15477 7.12137 7.16823L7.17452 7.17546C7.29957 7.19635 7.41767 7.25177 7.57 7.33502L7.73531 7.42746L13.7758 10.8216C13.8931 10.8875 13.9545 11.0231 13.9203 11.1555L13.9105 11.1864C13.8578 11.326 13.7099 11.3994 13.5708 11.3773L13.5412 11.371L13.2934 11.3083C10.7527 10.6864 8.83394 10.889 7.34774 11.4292C5.81071 11.9878 4.72242 12.9123 3.87639 13.6942L3.76613 13.7951C3.73219 13.8255 3.70085 13.8524 3.67154 13.8753C3.61144 13.9222 3.54809 13.9617 3.47237 13.9817L3.4295 13.9913C3.32862 14.0095 3.22424 13.9991 3.12862 13.9607L3.10221 13.9489C3.0418 13.9196 2.99174 13.8779 2.94496 13.8308C2.89289 13.7784 2.83492 13.709 2.76621 13.6271L1.57534 12.2062L1.45623 12.0629C1.42073 12.0191 1.38958 11.9789 1.36337 11.9418C1.30998 11.8662 1.26794 11.7903 1.24931 11.7029L1.24061 11.6519C1.22755 11.5497 1.24011 11.4459 1.277 11.3495L1.29756 11.3018C1.33628 11.2212 1.39496 11.1569 1.46477 11.0953C1.49902 11.065 1.53869 11.0329 1.58357 10.9983L1.73354 10.8851L6.22933 7.52367C6.43498 7.36991 6.57171 7.26499 6.72131 7.21224L6.75136 7.2025Z"
            fill="#000"></path>
    </g>
    <style>
        @media (prefers-color-scheme:dark){:root{filter:invert(100%)}}
    </style>
</svg>