<svg width="24" height="24" viewBox="0 0 24 24" fill="none" xmlns="http://www.w3.org/2000/svg">
<path d="M10.7188 1.8252C11.9365 1.82523 13.0867 2.05955 14.167 2.5293C15.2437 2.99755 16.1862 3.63502 16.9932 4.44141C17.8002 5.24796 18.4386 6.19036 18.9072 7.2666C19.3773 8.34622 19.6123 9.49582 19.6123 10.7129C19.6123 11.6622 19.4733 12.5654 19.1953 13.4209L19.0684 13.7842C18.7255 14.6929 18.2545 15.5219 17.6602 16.2734L21.8857 20.5127L21.9531 20.5869C22.0801 20.7387 22.1541 20.9126 22.1709 21.1055L22.1748 21.2031C22.1716 21.4669 22.0693 21.6982 21.8779 21.8896L21.875 21.8926C21.6825 22.0782 21.4511 22.1748 21.1885 22.1748C20.926 22.1748 20.6944 22.0783 20.502 21.8926L20.5 21.8896L16.2578 17.6582C15.6047 18.174 14.8938 18.5964 14.1221 18.9209L13.7666 19.0615C12.8045 19.4214 11.7881 19.6015 10.7188 19.6016C9.48512 19.6016 8.32669 19.3673 7.24609 18.8975C6.16946 18.4293 5.23078 17.7956 4.43164 16.9971C3.63243 16.1983 2.99783 15.2598 2.5293 14.1836C2.05915 13.1036 1.8252 11.9458 1.8252 10.7129C1.82524 9.49582 2.05926 8.34622 2.5293 7.2666C2.99776 6.19067 3.63188 5.24892 4.43066 4.44238C5.22992 3.63538 6.16895 2.9977 7.24609 2.5293C8.32672 2.05939 9.48508 1.8252 10.7188 1.8252ZM10.7188 3.78906C8.91028 3.78906 7.3619 4.38021 6.06543 5.56543L5.80859 5.81055C4.46145 7.15967 3.79012 8.79057 3.79004 10.7129C3.79004 12.6409 4.46143 14.2738 5.80859 15.6201C7.15575 16.9664 8.78949 17.6377 10.7188 17.6377C12.6425 17.6376 14.274 16.9656 15.624 15.6191L15.8691 15.3633C17.0552 14.0676 17.6475 12.5203 17.6475 10.7129C17.6474 8.91079 17.0552 7.36524 15.8691 6.06738L15.624 5.81055C14.274 4.46158 12.6423 3.78913 10.7188 3.78906Z" fill="white"/>
</svg>
