<svg width="42" height="43" viewBox="0 0 42 43" fill="none" xmlns="http://www.w3.org/2000/svg">
<g clip-path="url(#clip0_308_920)">
<path d="M31.7898 0.526049C32.0925 0.471528 32.4056 0.502785 32.6924 0.618015L32.7717 0.653386C32.9529 0.741141 33.1031 0.866339 33.2434 1.00757C33.3997 1.16483 33.5735 1.37281 33.7797 1.61879L37.3523 5.8813L37.7096 6.31142C37.8162 6.44276 37.9096 6.56314 37.9882 6.67457C38.1484 6.90157 38.2745 7.12912 38.3304 7.39143L38.3565 7.54423C38.3957 7.85098 38.358 8.16241 38.2473 8.45163L38.1856 8.59453C38.0695 8.83637 37.8934 9.02921 37.684 9.21424C37.5813 9.30501 37.4622 9.40122 37.3276 9.50523L36.8777 9.8448L23.3903 19.929C22.7735 20.3902 22.3631 20.705 21.9144 20.8633L21.8242 20.8925C21.4649 21.001 21.0868 21.0357 20.7142 20.9953L20.5548 20.9736C20.1796 20.911 19.8254 20.7447 19.3683 20.4949L18.8724 20.2176L1.71199 10.0353C1.36023 9.83768 1.17588 9.43086 1.27871 9.03361L1.30813 8.9407C1.46622 8.52205 1.90978 8.30166 2.32704 8.36816L2.41579 8.38702L3.15944 8.5752C10.7815 10.4407 15.5765 9.83312 20.0351 8.21252C24.6461 6.53647 27.9111 3.76296 30.4491 1.41741L30.7799 1.11463C30.8817 1.0236 30.9758 0.942701 31.0637 0.874105C31.244 0.733473 31.4341 0.614884 31.6612 0.554817L31.7898 0.526049Z" fill="white" fill-opacity="0.75"/>
<path d="M20.2542 22.1069C20.6135 21.9984 20.9916 21.9637 21.3642 22.0041L21.5237 22.0258C21.8988 22.0885 22.2531 22.2547 22.7101 22.5045L23.2061 22.7818L41.3276 32.9641C41.6793 33.1618 41.8637 33.5686 41.7609 33.9658L41.7315 34.0587C41.5734 34.4773 41.1298 34.6977 40.7126 34.6313L40.6238 34.6124L39.8802 34.4242C32.2581 32.5587 26.5019 33.1663 22.0433 34.7869C17.4323 36.4629 14.1674 39.2364 11.6293 41.582L11.2985 41.8848C11.1967 41.9759 11.1027 42.0567 11.0147 42.1253C10.8344 42.266 10.6444 42.3845 10.4172 42.4446L10.2886 42.4734C9.98598 42.5279 9.67285 42.4966 9.38599 42.3814L9.30674 42.346C9.12552 42.2583 8.97533 42.133 8.83501 41.9918C8.67878 41.8346 8.50488 41.6265 8.29875 41.3806L4.72616 37.1181L4.3688 36.688C4.26232 36.5567 4.16885 36.4362 4.09023 36.3249C3.93005 36.0979 3.80395 35.8703 3.74806 35.608L3.72196 35.4552C3.68277 35.1484 3.72046 34.837 3.83111 34.5478L3.8928 34.4049C4.00896 34.163 4.185 33.9702 4.39443 33.7852C4.49719 33.6944 4.61619 33.5982 4.75083 33.4942L5.20073 33.1546L18.6881 23.0704C19.305 22.6092 19.7153 22.2944 20.164 22.1362L20.2542 22.1069Z" fill="white" fill-opacity="0.5"/>
</g>
<defs>
<clipPath id="clip0_308_920">
<rect width="42" height="42" fill="white" transform="translate(0 0.5)"/>
</clipPath>
</defs>
</svg>
